<?xml version="1.0" encoding="UTF-8"?>
<!DOCTYPE svg PUBLIC "-//W3C//DTD SVG 1.1//EN" "http://www.w3.org/Graphics/SVG/1.1/DTD/svg11.dtd">
<!-- Creator: CorelDRAW 2019 (64-Bit) -->
<svg xmlns="http://www.w3.org/2000/svg" xml:space="preserve" width="640px" height="77px" version="1.1" shape-rendering="geometricPrecision" text-rendering="geometricPrecision" image-rendering="optimizeQuality" fill-rule="evenodd" clip-rule="evenodd"
viewBox="0 0 640 77"
 xmlns:xlink="http://www.w3.org/1999/xlink"
 xmlns:xodm="http://www.corel.com/coreldraw/odm/2003">
 <g id="Layer_x0020_1">
  <metadata id="CorelCorpID_0Corel-Layer"/>
  <path fill="#626363" d="M260.76 44.72l0 -3.49c0,-4.47 -3.69,-8.15 -8.15,-8.15l-23.28 0c-4.46,0 -8.14,3.68 -8.14,8.15l0 3.49 39.57 0zm335.14 -22.11c-8.96,0 -16.3,7.33 -16.3,16.29 0,8.96 7.34,16.29 16.3,16.29l27.81 0c3.2,0 5.82,2.62 5.82,5.82 0,3.2 -2.62,5.81 -5.82,5.81l-34.8 0.01c-0.64,0 -1.16,0.52 -1.16,1.16l0 8.14c0,0.64 0.52,1.17 1.16,1.17l34.8 0c8.96,0 16.29,-7.33 16.29,-16.29 0,-8.96 -7.33,-16.29 -16.29,-16.29l-27.82 0c-3.2,0 -5.81,-2.62 -5.81,-5.82 0,-3.2 2.61,-5.82 5.81,-5.82l34.92 0c0.64,0 1.16,-0.52 1.16,-1.17l0 -8.14c0,-0.64 -0.52,-1.16 -1.16,-1.16l-34.91 0zm-436.39 53.53l0 -34.91c0,-10.25 8.38,-18.62 18.62,-18.62l23.28 0c0.64,0 1.16,0.52 1.16,1.16l0 8.14c0,0.65 -0.52,1.17 -1.16,1.17l-23.28 0c-4.46,0 -8.15,3.68 -8.15,8.15l0 34.91c0,0.64 -0.52,1.16 -1.16,1.16l-8.14 0c-0.64,0 -1.17,-0.52 -1.17,-1.16zm231.58 0l0 -34.91c0,-10.25 8.37,-18.62 18.62,-18.62l23.27 0c0.64,0 1.17,0.52 1.17,1.16l0 8.14c0,0.65 -0.53,1.17 -1.17,1.17l-23.27 0c-4.47,0 -8.15,3.68 -8.15,8.15l0 34.91c0,0.64 -0.53,1.16 -1.17,1.16l-8.14 0c-0.64,0 -1.16,-0.52 -1.16,-1.16zm61.67 -53.53l31.43 0c10.24,0 18.61,8.37 18.61,18.62l0 17.45c0,10.24 -8.37,18.62 -18.61,18.62l-23.28 0c-10.24,0 -18.62,-8.38 -18.62,-18.62l0 -57.02c0,-0.64 0.52,-1.16 1.16,-1.16l8.15 0c0.64,0 1.16,0.52 1.16,1.17l0 20.94zm0 10.47l0 25.6c0,4.46 3.69,8.15 8.15,8.15l23.28 0c4.46,0 8.14,-3.69 8.14,-8.15l0 -17.45c0,-4.47 -3.68,-8.15 -8.14,-8.15l-31.43 0zm76.81 0c-4.47,0 -8.15,3.68 -8.15,8.15l0 17.45c0,4.46 3.68,8.15 8.15,8.15l23.27 0c4.47,0 8.15,-3.69 8.15,-8.15l0 -17.45c0,-4.47 -3.68,-8.15 -8.15,-8.15l-23.27 0zm0 44.22c-10.25,0 -18.62,-8.38 -18.62,-18.62l0 -17.45c0,-10.25 8.37,-18.62 18.62,-18.62l23.27 0c10.24,0 18.62,8.37 18.62,18.62l0 17.45c0,10.24 -8.38,18.62 -18.62,18.62l-23.27 0zm-196.67 -53.53c0,-0.64 -0.52,-1.16 -1.16,-1.16l-8.15 0c-0.64,0 -1.16,0.52 -1.16,1.16 0,11.64 0,23.28 0,34.91 0,10.24 8.38,18.62 18.62,18.62l23.28 0c10.24,0 18.61,-8.38 18.61,-18.62 0,-11.64 0,-23.27 0,-34.91 0,-0.64 -0.52,-1.16 -1.16,-1.16l-8.14 0c-0.65,0 -1.17,0.52 -1.17,1.16 0,11.64 0,23.28 0,34.91 0,4.46 -3.68,8.15 -8.14,8.15l-23.28 0c-4.46,0 -8.15,-3.69 -8.15,-8.15 0,-11.64 0,-23.27 0,-34.91zm-43.06 -1.16l23.28 0c0.64,0 1.17,0.52 1.17,1.16l0 8.14c0,0.65 -0.53,1.17 -1.17,1.17l-23.28 0 0 43.06c0,0.64 -0.52,1.16 -1.16,1.16l-8.14 0c-0.64,0 -1.17,-0.52 -1.17,-1.16l0 -57.02c0,-10.24 8.38,-18.62 18.62,-18.62l5.34 0c0.32,0 0.6,0.12 0.83,0.34l8.14 8.14c0.34,0.34 0.44,0.83 0.25,1.27 -0.18,0.45 -0.59,0.72 -1.07,0.72l-13.49 0c-4.46,0 -8.15,3.69 -8.15,8.15l0 3.49zm-68.65 32.58l0 3.49c0,4.46 3.68,8.15 8.14,8.15l32.59 0c0.64,0 1.16,0.52 1.16,1.16l0 8.15c0,0.64 -0.52,1.16 -1.16,1.16l-32.59 0c-10.24,0 -18.62,-8.38 -18.62,-18.62l0 -17.45c0,-10.25 8.38,-18.62 18.62,-18.62l23.28 0c10.24,0 18.62,8.37 18.62,18.62l0 12.79c0,0.65 -0.53,1.17 -1.17,1.17l-48.87 0z"/>
  <path fill="#56AB35" d="M6.41 8.1c0.17,0.17 0.36,0.25 0.6,0.25l96.04 0c10.32,0 18.78,8.46 18.78,18.78 0,10.31 -8.46,18.79 -18.78,18.78l-5.49 0 -8.49 0c-0.35,0 -0.65,0.19 -0.78,0.52 -0.13,0.32 -0.06,0.67 0.18,0.91l6.17 6.17c0.17,0.17 0.36,0.25 0.6,0.25l7.81 0c14.65,0 26.63,-11.98 26.63,-26.63 0,-14.65 -11.98,-26.63 -26.63,-26.63l-102.21 0c-0.35,0 -0.64,0.2 -0.77,0.52 -0.14,0.32 -0.07,0.67 0.18,0.91l6.16 6.17zm46.12 22.67c-0.35,0 -0.65,0.2 -0.78,0.52 -0.13,0.33 -0.06,0.67 0.18,0.92l44.84 44.84c0.17,0.17 0.37,0.25 0.6,0.25l8.72 0c0.35,0 0.64,-0.2 0.78,-0.52 0.13,-0.32 0.06,-0.67 -0.19,-0.92l-44.84 -44.84c-0.17,-0.16 -0.36,-0.25 -0.59,-0.25l-8.72 0zm32.16 46.53c0.35,0 0.64,-0.2 0.77,-0.52 0.14,-0.32 0.07,-0.67 -0.18,-0.92l-6.01 -6 -38.84 -38.84c-0.16,-0.16 -0.36,-0.25 -0.59,-0.25l-8.72 0c-0.35,0 -0.64,0.2 -0.78,0.52 -0.13,0.33 -0.06,0.67 0.18,0.92l44.85 44.84c0.16,0.17 0.36,0.25 0.59,0.25l8.73 0zm22.01 -50.17c0,1.96 -1.69,3.64 -3.65,3.64l-29.12 0c-0.35,0 -0.64,0.2 -0.77,0.52 -0.14,0.33 -0.07,0.67 0.18,0.92l6.16 6.17c0.17,0.16 0.37,0.24 0.6,0.24l22.95 0c6.29,0 11.49,-5.2 11.49,-11.49 0,-6.29 -5.2,-11.49 -11.49,-11.49l-87.07 0c-0.35,0 -0.64,0.19 -0.78,0.52 -0.13,0.32 -0.06,0.67 0.19,0.91l6.16 6.17c0.17,0.16 0.36,0.24 0.6,0.24l80.9 0c1.96,0 3.65,1.69 3.65,3.65z"/>
 </g>
</svg>
